<?xml version="1.0" standalone="no"?>
<!DOCTYPE svg PUBLIC "-//W3C//DTD SVG 20010904//EN"
 "http://www.w3.org/TR/2001/REC-SVG-20010904/DTD/svg10.dtd">
<svg version="1.0" xmlns="http://www.w3.org/2000/svg"
 width="512.000000pt" height="512.000000pt" viewBox="0 0 512.000000 512.000000"
 preserveAspectRatio="xMidYMid meet">
<metadata>
Created by potrace 1.14, written by Peter Selinger 2001-2017
</metadata>
<g transform="translate(0.000000,512.000000) scale(0.100000,-0.100000)"
fill="#000000" stroke="none">
<path d="M854 5105 c-409 -75 -724 -368 -826 -771 l-23 -89 0 -1685 0 -1685
23 -89 c96 -377 381 -662 758 -758 l89 -23 1685 0 1685 0 89 23 c377 96 662
381 758 758 l23 89 0 1685 0 1685 -23 89 c-47 185 -141 352 -274 484 -129 130
-283 219 -468 270 l-95 27 -1665 2 c-1323 1 -1679 -1 -1736 -12z m2564 -1474
c66 -46 63 2 60 -973 l-3 -883 -22 -41 c-12 -22 -38 -53 -59 -69 -91 -70 -311
-153 -488 -186 -145 -26 -467 -28 -594 -4 -355 68 -553 231 -639 525 l-27 95
-4 771 -3 771 45 12 c25 6 81 11 126 11 95 0 144 -20 175 -72 19 -32 20 -56
25 -738 5 -693 6 -706 27 -770 57 -165 174 -260 378 -305 65 -14 109 -16 230
-12 175 6 299 34 438 98 l27 12 0 878 0 878 21 12 c30 16 145 26 206 18 29 -4
65 -17 81 -28z"/>
</g>
</svg>
